# xmcd
#
# Track frame offsets:
#	150
#	14359
#	27914
#	42487
#	57855
#	73389
#	87666
#	102009
#	116213
#	130382
#	144346
#	158615
#	173145
#	188573
#	205318
#
# Disc length: 2920 seconds
#
# Revision: 0
# Processed by: cddbd v1.5.2PL0 Copyright (c) Steve Scherf et al.
# Submitted via: EasyCDDAExtractor 16.0.6.1
#
DISCID=d50b660f
DTITLE=Ιακωβίδης Αγάθωνας - Τα μπελεντέρια-Αγ. Ιακωβίδης
DYEAR=1993
DGENRE=Ρεμπέτικη
TTITLE0=Ιακωβίδης Αγάθωνας - Το καλοκαίρι τώρα [Π. Τούντα]
TTITLE1=Ιακωβίδης Αγάθωνας - Ο τεκετζής [Σπ. Περιστέρη]
TTITLE2=Λουλάκη Μαρία-Ιακωβίδης Αγάθωνας - Μη σε πλανέψουν τα λεφτά [Κ. Σκαρβέ
TTITLE2=λη]
TTITLE3=Ιακωβίδης Αγάθωνας - Το παιχνίδι του Αμερικάνου [Κ. Σκαρβέλη]
TTITLE4=Ιακωβίδης Αγάθωνας - Σε μιά ξανθούλα [Στ. Περπινιάδη]
TTITLE5=Ιακωβίδης Αγάθωνας - Γυφτοπούλα [Ν. Στεφανίδη]
TTITLE6=Ιακωβίδης Αγάθωνας - Τα φρύγανα [παραδοσιακό]
TTITLE7=Ιακωβίδης Αγάθωνας - Τα μπελεντέρια [Σπ. Περιστέρη]
TTITLE8=Ιακωβίδης Αγάθωνας - Είσαι γκρινιάρα και γλωσσού [Κ. Σκαρβέλη]
TTITLE9=Ιακωβίδης Αγάθωνας - Μέσα στο Πασαλιμάνι [Κ. Σκαρβέλη]
TTITLE10=Ιακωβίδης Αγάθωνας - Τσαχπίνα [Π. Τούντα]
TTITLE11=Ιακωβίδης Αγάθωνας - Δυό καρπούζια σ' ένα χέρι [Στ. Περπινιάδη]
TTITLE12=Ιακωβίδης Αγάθωνας - Έμαθα, πως παντρεύεσαι [Κ. Σκαρβέλη]
TTITLE13=Ιακωβίδης Αγάθωνας - Σαν πας στα ξένα [παραδοσιακό]
TTITLE14=Ιακωβίδης Αγάθωνας - Θα πονείς και θα δακρύζεις [παραδοσιακό]
EXTD=
EXTT0=
EXTT1=
EXTT2=
EXTT3=
EXTT4=
EXTT5=
EXTT6=
EXTT7=
EXTT8=
EXTT9=
EXTT10=
EXTT11=
EXTT12=
EXTT13=
EXTT14=
PLAYORDER=
